<?xml version="1.0" encoding="UTF-8"?>
<!DOCTYPE svg PUBLIC "-//W3C//DTD SVG 1.1//EN" "http://www.w3.org/Graphics/SVG/1.1/DTD/svg11.dtd">
<svg xmlns="http://www.w3.org/2000/svg" version="1.1" width="3000px" height="1000px" style="shape-rendering:geometricPrecision; text-rendering:geometricPrecision; image-rendering:optimizeQuality; fill-rule:evenodd; clip-rule:evenodd" xmlns:xlink="http://www.w3.org/1999/xlink">
<g><path style="opacity:1" fill="#1c1b17" d="M -0.5,-0.5 C 999.5,-0.5 1999.5,-0.5 2999.5,-0.5C 2999.5,332.833 2999.5,666.167 2999.5,999.5C 1999.5,999.5 999.5,999.5 -0.5,999.5C -0.5,666.167 -0.5,332.833 -0.5,-0.5 Z"/></g>
<g><path style="opacity:1" fill="#5a5a5a" d="M 353.5,80.5 C 357.833,80.5 362.167,80.5 366.5,80.5C 368.13,114.168 369.796,147.835 371.5,181.5C 276.903,189.38 203.737,232.713 152,311.5C 137.896,335.699 126.563,361.032 118,387.5C 85.9939,378.467 53.8272,370.133 21.5,362.5C 47.6221,266.044 102.622,190.878 186.5,137C 237.959,105.459 293.625,86.6253 353.5,80.5 Z"/></g>
<g><path style="opacity:1" fill="#5a5a5a" d="M 519.5,104.5 C 588.695,130.19 645.529,172.523 690,231.5C 754.862,320.966 777.529,420.3 758,529.5C 753.299,553.648 746.133,576.982 736.5,599.5C 705.709,586.686 674.875,574.02 644,561.5C 681.003,458.477 665.67,364.144 598,278.5C 566.664,242.671 528.831,216.005 484.5,198.5C 496.57,167.286 508.237,135.952 519.5,104.5 Z"/></g>
<g><path style="opacity:1" fill="#16372f" d="M 1284.5,294.5 C 1329.33,293.501 1374.33,293.168 1419.5,293.5C 1419.83,302.682 1419.49,311.682 1418.5,320.5C 1418.5,311.833 1418.5,303.167 1418.5,294.5C 1373.83,294.5 1329.17,294.5 1284.5,294.5 Z"/></g>
<g><path style="opacity:1" fill="#17342c" d="M 2833.5,294.5 C 2821.65,294.172 2809.99,294.505 2798.5,295.5C 2797.96,295.44 2797.62,295.107 2797.5,294.5C 2809.66,293.175 2821.66,293.175 2833.5,294.5 Z"/></g>
<g><path style="opacity:1" fill="#17342c" d="M 2950.5,294.5 C 2961.67,293.176 2973.01,293.176 2984.5,294.5C 2984.38,295.107 2984.04,295.44 2983.5,295.5C 2972.68,294.505 2961.68,294.172 2950.5,294.5 Z"/></g>
<g><path style="opacity:1" fill="#154137" d="M 962.5,294.5 C 915.833,294.5 869.167,294.5 822.5,294.5C 822.5,303.167 822.5,311.833 822.5,320.5C 821.507,311.682 821.173,302.682 821.5,293.5C 868.67,293.168 915.67,293.501 962.5,294.5 Z"/></g>
<g><path style="opacity:1" fill="#0b7c68" d="M 962.5,294.5 C 962.5,303.167 962.5,311.833 962.5,320.5C 943.5,320.5 924.5,320.5 905.5,320.5C 905.5,361.833 905.5,403.167 905.5,444.5C 896.833,444.5 888.167,444.5 879.5,444.5C 879.832,402.997 879.499,361.663 878.5,320.5C 859.833,320.5 841.167,320.5 822.5,320.5C 822.5,311.833 822.5,303.167 822.5,294.5C 869.167,294.5 915.833,294.5 962.5,294.5 Z"/></g>
<g><path style="opacity:1" fill="#0b7b68" d="M 1114.5,418.5 C 1114.5,427.167 1114.5,435.833 1114.5,444.5C 1069.83,444.5 1025.17,444.5 980.5,444.5C 980.5,394.5 980.5,344.5 980.5,294.5C 1025.17,294.5 1069.83,294.5 1114.5,294.5C 1114.5,303.167 1114.5,311.833 1114.5,320.5C 1078.5,320.5 1042.5,320.5 1006.5,320.5C 1006.5,353.167 1006.5,385.833 1006.5,418.5C 1042.5,418.5 1078.5,418.5 1114.5,418.5 Z"/></g>
<g><path style="opacity:1" fill="#0b7a67" d="M 1137.5,294.5 C 1146.17,294.5 1154.83,294.5 1163.5,294.5C 1163.17,336.003 1163.5,377.337 1164.5,418.5C 1198.17,418.5 1231.83,418.5 1265.5,418.5C 1265.5,427.5 1265.5,436.5 1265.5,445.5C 1222.83,445.5 1180.17,445.5 1137.5,445.5C 1137.5,395.167 1137.5,344.833 1137.5,294.5 Z"/></g>
<g><path style="opacity:1" fill="#134b40" d="M 1137.5,294.5 C 1146.32,293.507 1155.32,293.173 1164.5,293.5C 1164.5,335.167 1164.5,376.833 1164.5,418.5C 1163.5,377.337 1163.17,336.003 1163.5,294.5C 1154.83,294.5 1146.17,294.5 1137.5,294.5 Z"/></g>
<g><path style="opacity:1" fill="#0b7c68" d="M 1284.5,294.5 C 1329.17,294.5 1373.83,294.5 1418.5,294.5C 1418.5,303.167 1418.5,311.833 1418.5,320.5C 1382.5,320.5 1346.5,320.5 1310.5,320.5C 1310.5,353.167 1310.5,385.833 1310.5,418.5C 1346.33,419.498 1382.33,419.832 1418.5,419.5C 1418.5,427.833 1418.5,436.167 1418.5,444.5C 1373.83,444.5 1329.17,444.5 1284.5,444.5C 1284.5,394.5 1284.5,344.5 1284.5,294.5 Z"/></g>
<g><path style="opacity:1" fill="#0b7b68" d="M 1442.5,294.5 C 1482.5,294.333 1522.5,294.5 1562.5,295C 1583.6,298.771 1597.1,310.938 1603,331.5C 1607.07,349.943 1604.41,367.276 1595,383.5C 1589.46,390.552 1582.62,395.885 1574.5,399.5C 1588.85,414.187 1603.19,428.854 1617.5,443.5C 1605.68,444.495 1593.68,444.828 1581.5,444.5C 1568.83,430.833 1556.17,417.167 1543.5,403.5C 1525.01,402.503 1506.34,402.17 1487.5,402.5C 1487.5,395.167 1487.5,387.833 1487.5,380.5C 1509.67,380.831 1531.67,380.497 1553.5,379.5C 1566.62,378.876 1574.79,372.209 1578,359.5C 1578.67,352.833 1578.67,346.167 1578,339.5C 1574.59,327.758 1566.75,321.591 1554.5,321C 1525.84,320.5 1497.17,320.333 1468.5,320.5C 1467.5,361.663 1467.17,402.997 1467.5,444.5C 1459.17,444.5 1450.83,444.5 1442.5,444.5C 1442.5,394.5 1442.5,344.5 1442.5,294.5 Z"/></g>
<g><path style="opacity:1" fill="#14463b" d="M 1929.5,294.5 C 1899.17,294.5 1868.83,294.5 1838.5,294.5C 1838.5,344.5 1838.5,394.5 1838.5,444.5C 1869.17,444.5 1899.83,444.5 1930.5,444.5C 1899.67,445.498 1868.67,445.831 1837.5,445.5C 1837.5,394.833 1837.5,344.167 1837.5,293.5C 1868.34,293.169 1899,293.502 1929.5,294.5 Z"/></g>
<g><path style="opacity:1" fill="#0b7b68" d="M 1929.5,294.5 C 1973.4,299.063 1996.4,323.396 1998.5,367.5C 1998.56,400.24 1984.23,424.073 1955.5,439C 1947.53,442.549 1939.2,444.383 1930.5,444.5C 1899.83,444.5 1869.17,444.5 1838.5,444.5C 1838.5,394.5 1838.5,344.5 1838.5,294.5C 1868.83,294.5 1899.17,294.5 1929.5,294.5 Z"/></g>
<g><path style="opacity:1" fill="#10594c" d="M 2022.5,294.5 C 2022.5,344.5 2022.5,394.5 2022.5,444.5C 2030.83,444.5 2039.17,444.5 2047.5,444.5C 2047.5,394.5 2047.5,344.5 2047.5,294.5C 2048.5,344.664 2048.83,394.997 2048.5,445.5C 2039.5,445.5 2030.5,445.5 2021.5,445.5C 2021.17,394.997 2021.5,344.664 2022.5,294.5 Z"/></g>
<g><path style="opacity:1" fill="#0b7c68" d="M 2022.5,294.5 C 2030.83,294.5 2039.17,294.5 2047.5,294.5C 2047.5,344.5 2047.5,394.5 2047.5,444.5C 2039.17,444.5 2030.83,444.5 2022.5,444.5C 2022.5,394.5 2022.5,344.5 2022.5,294.5 Z"/></g>
<g><path style="opacity:1" fill="#0b7a67" d="M 2130.5,294.5 C 2153.53,294.088 2176.53,294.588 2199.5,296C 2235.21,305.907 2253.88,329.407 2255.5,366.5C 2254.11,411.843 2231.11,438.009 2186.5,445C 2167.79,445.919 2149.13,445.586 2130.5,444C 2097.51,435.34 2078.01,414.174 2072,380.5C 2067.78,335.289 2087.28,306.623 2130.5,294.5 Z"/></g>
<g><path style="opacity:1" fill="#0b7b68" d="M 2302.5,294.5 C 2302.5,336.167 2302.5,377.833 2302.5,419.5C 2336.17,419.5 2369.83,419.5 2403.5,419.5C 2403.5,427.833 2403.5,436.167 2403.5,444.5C 2361.17,444.5 2318.83,444.5 2276.5,444.5C 2276.5,394.5 2276.5,344.5 2276.5,294.5C 2285.17,294.5 2293.83,294.5 2302.5,294.5 Z"/></g>
<g><path style="opacity:1" fill="#0b7a67" d="M 2478.5,294.5 C 2499.5,294.333 2520.5,294.5 2541.5,295C 2575.21,301.044 2595.38,320.877 2602,354.5C 2606.41,389.335 2594.24,416.501 2565.5,436C 2555.65,440.712 2545.32,443.712 2534.5,445C 2515.46,445.921 2496.46,445.587 2477.5,444C 2442.2,434.286 2422.7,411.119 2419,374.5C 2416.74,339.126 2431.57,313.96 2463.5,299C 2468.58,297.32 2473.58,295.82 2478.5,294.5 Z"/></g>
<g><path style="opacity:1" fill="#0b7b68" d="M 2783.5,357.5 C 2783.5,386.5 2783.5,415.5 2783.5,444.5C 2750.5,444.5 2717.5,444.5 2684.5,444.5C 2649.97,438.804 2628.8,418.804 2621,384.5C 2615.1,352.18 2624.93,326.013 2650.5,306C 2657.99,301.501 2665.99,298.168 2674.5,296C 2707.79,294.535 2741.13,294.035 2774.5,294.5C 2774.5,303.167 2774.5,311.833 2774.5,320.5C 2744.5,320.333 2714.5,320.5 2684.5,321C 2655.61,329.232 2643.11,348.399 2647,378.5C 2650.64,400.136 2663.14,413.303 2684.5,418C 2708.83,418.5 2733.16,418.667 2757.5,418.5C 2757.5,405.5 2757.5,392.5 2757.5,379.5C 2734.83,379.5 2712.17,379.5 2689.5,379.5C 2689.5,372.167 2689.5,364.833 2689.5,357.5C 2720.83,357.5 2752.17,357.5 2783.5,357.5 Z"/></g>
<g><path style="opacity:1" fill="#0b7b68" d="M 2798.5,295.5 C 2809.99,294.505 2821.65,294.172 2833.5,294.5C 2852.79,317.627 2872.29,340.627 2892,363.5C 2911.71,340.627 2931.21,317.627 2950.5,294.5C 2961.68,294.172 2972.68,294.505 2983.5,295.5C 2957.17,326.167 2930.83,356.833 2904.5,387.5C 2903.5,406.326 2903.17,425.326 2903.5,444.5C 2895.17,444.5 2886.83,444.5 2878.5,444.5C 2878.83,425.326 2878.5,406.326 2877.5,387.5C 2851.14,356.808 2824.8,326.142 2798.5,295.5 Z"/></g>
<g><path style="opacity:1" fill="#0b7a67" d="M 1715.5,294.5 C 1724.19,294.169 1732.86,294.502 1741.5,295.5C 1770.42,345.003 1799.09,394.67 1827.5,444.5C 1816.94,445.819 1806.44,445.819 1796,444.5C 1773.17,404.833 1750.33,365.167 1727.5,325.5C 1704.58,365.004 1681.91,404.671 1659.5,444.5C 1649.18,445.666 1638.85,445.832 1628.5,445C 1657.89,395.051 1686.89,344.884 1715.5,294.5 Z"/></g>
<g><path style="opacity:1" fill="#134e42" d="M 1442.5,294.5 C 1442.5,344.5 1442.5,394.5 1442.5,444.5C 1450.83,444.5 1459.17,444.5 1467.5,444.5C 1467.17,402.997 1467.5,361.663 1468.5,320.5C 1468.5,362.167 1468.5,403.833 1468.5,445.5C 1459.5,445.5 1450.5,445.5 1441.5,445.5C 1441.17,394.997 1441.5,344.664 1442.5,294.5 Z"/></g>
<g><path style="opacity:1" fill="#1a221d" d="M 962.5,320.5 C 944.007,321.497 925.341,321.83 906.5,321.5C 906.832,363.003 906.499,404.337 905.5,445.5C 905.5,445.167 905.5,444.833 905.5,444.5C 905.5,403.167 905.5,361.833 905.5,320.5C 924.5,320.5 943.5,320.5 962.5,320.5 Z"/></g>
<g><path style="opacity:1" fill="#1b1b17" d="M 1864.5,320.5 C 1886.5,320.333 1908.5,320.5 1930.5,321C 1957.02,325.693 1971.02,341.527 1972.5,368.5C 1972.07,395.553 1958.74,412.053 1932.5,418C 1909.84,418.5 1887.17,418.667 1864.5,418.5C 1864.5,385.833 1864.5,353.167 1864.5,320.5 Z"/></g>
<g><path style="opacity:1" fill="#1c1b17" d="M 2135.5,320.5 C 2153.17,320.333 2170.84,320.5 2188.5,321C 2210.11,324.609 2223.28,337.109 2228,358.5C 2230.82,377.067 2225.99,393.234 2213.5,407C 2206.23,412.983 2197.89,416.65 2188.5,418C 2170.5,418.667 2152.5,418.667 2134.5,418C 2113.06,411.886 2100.89,397.72 2098,375.5C 2096.16,347.205 2108.66,328.871 2135.5,320.5 Z"/></g>
<g><path style="opacity:1" fill="#1c1b17" d="M 2483.5,320.5 C 2502.88,320.064 2522.21,320.564 2541.5,322C 2566.15,330.778 2577.65,348.278 2576,374.5C 2573.01,399.484 2559.18,413.984 2534.5,418C 2517.17,418.667 2499.83,418.667 2482.5,418C 2457.65,410.793 2445.32,394.127 2445.5,368C 2446.9,342.989 2459.57,327.155 2483.5,320.5 Z"/></g>
<g><path style="opacity:1" fill="#0b7b68" d="M 1025.5,357.5 C 1053.5,357.5 1081.5,357.5 1109.5,357.5C 1109.5,364.833 1109.5,372.167 1109.5,379.5C 1081.5,379.5 1053.5,379.5 1025.5,379.5C 1025.5,372.167 1025.5,364.833 1025.5,357.5 Z"/></g>
<g><path style="opacity:1" fill="#0b7b68" d="M 1329.5,357.5 C 1357.5,357.5 1385.5,357.5 1413.5,357.5C 1413.5,364.833 1413.5,372.167 1413.5,379.5C 1385.5,379.5 1357.5,379.5 1329.5,379.5C 1329.5,372.167 1329.5,364.833 1329.5,357.5 Z"/></g>
<g><path style="opacity:1" fill="#15473c" d="M 1553.5,379.5 C 1531.67,380.497 1509.67,380.831 1487.5,380.5C 1487.5,387.833 1487.5,395.167 1487.5,402.5C 1506.34,402.17 1525.01,402.503 1543.5,403.5C 1524.5,403.5 1505.5,403.5 1486.5,403.5C 1486.5,395.5 1486.5,387.5 1486.5,379.5C 1508.83,379.5 1531.17,379.5 1553.5,379.5 Z"/></g>
<g><path style="opacity:1" fill="#0b7a67" d="M 310.5,387.5 C 310.5,395.167 310.5,402.833 310.5,410.5C 284.661,410.169 258.995,410.502 233.5,411.5C 213.05,414.112 200.217,425.446 195,445.5C 191.998,465.641 198.498,481.807 214.5,494C 218.525,496.514 222.859,498.181 227.5,499C 255.165,499.5 282.831,499.667 310.5,499.5C 310.5,507.833 310.5,516.167 310.5,524.5C 283.498,524.667 256.498,524.5 229.5,524C 191.217,516.207 171.55,492.707 170.5,453.5C 171.81,418.363 189.477,396.53 223.5,388C 252.498,387.5 281.498,387.333 310.5,387.5 Z"/></g>
<g><path style="opacity:1" fill="#0b7b68" d="M 331.5,387.5 C 339.5,387.5 347.5,387.5 355.5,387.5C 355.5,433.167 355.5,478.833 355.5,524.5C 347.5,524.5 339.5,524.5 331.5,524.5C 331.5,478.833 331.5,433.167 331.5,387.5 Z"/></g>
<g><path style="opacity:1" fill="#0b7a67" d="M 398.5,523.5 C 389.651,523.826 380.984,523.493 372.5,522.5C 397.723,477.725 423.223,433.059 449,388.5C 457.333,387.167 465.667,387.167 474,388.5C 499.833,433.5 525.667,478.5 551.5,523.5C 541.833,524.833 532.167,524.833 522.5,523.5C 502.324,487.139 481.657,451.139 460.5,415.5C 439.806,451.563 419.14,487.563 398.5,523.5 Z"/></g>
<g><path style="opacity:1" fill="#14493e" d="M 593.5,387.5 C 585.833,387.5 578.167,387.5 570.5,387.5C 570.5,432.833 570.5,478.167 570.5,523.5C 578.167,523.5 585.833,523.5 593.5,523.5C 585.684,524.492 577.684,524.826 569.5,524.5C 569.5,478.5 569.5,432.5 569.5,386.5C 577.684,386.174 585.684,386.508 593.5,387.5 Z"/></g>
<g><path style="opacity:1" fill="#0b7c68" d="M 593.5,387.5 C 593.5,432.833 593.5,478.167 593.5,523.5C 585.833,523.5 578.167,523.5 570.5,523.5C 570.5,478.167 570.5,432.833 570.5,387.5C 578.167,387.5 585.833,387.5 593.5,387.5 Z"/></g>
<g><path style="opacity:1" fill="#105c4e" d="M 2877.5,387.5 C 2878.5,406.326 2878.83,425.326 2878.5,444.5C 2886.83,444.5 2895.17,444.5 2903.5,444.5C 2903.17,425.326 2903.5,406.326 2904.5,387.5C 2904.5,406.833 2904.5,426.167 2904.5,445.5C 2895.5,445.5 2886.5,445.5 2877.5,445.5C 2877.5,426.167 2877.5,406.833 2877.5,387.5 Z"/></g>
<g><path style="opacity:1" fill="#125447" d="M 310.5,387.5 C 311.492,395.316 311.826,403.316 311.5,411.5C 285.5,411.5 259.5,411.5 233.5,411.5C 258.995,410.502 284.661,410.169 310.5,410.5C 310.5,402.833 310.5,395.167 310.5,387.5 Z"/></g>
<g><path style="opacity:1" fill="#105e4f" d="M 1310.5,418.5 C 1346.83,418.5 1383.17,418.5 1419.5,418.5C 1419.5,427.5 1419.5,436.5 1419.5,445.5C 1374.33,445.832 1329.33,445.499 1284.5,444.5C 1329.17,444.5 1373.83,444.5 1418.5,444.5C 1418.5,436.167 1418.5,427.833 1418.5,419.5C 1382.33,419.832 1346.33,419.498 1310.5,418.5 Z"/></g>
<g><path style="opacity:1" fill="#125749" d="M 2302.5,294.5 C 2303.5,335.663 2303.83,376.997 2303.5,418.5C 2337.17,418.5 2370.83,418.5 2404.5,418.5C 2404.5,427.5 2404.5,436.5 2404.5,445.5C 2361.66,445.832 2319,445.499 2276.5,444.5C 2318.83,444.5 2361.17,444.5 2403.5,444.5C 2403.5,436.167 2403.5,427.833 2403.5,419.5C 2369.83,419.5 2336.17,419.5 2302.5,419.5C 2302.5,377.833 2302.5,336.167 2302.5,294.5 Z"/></g>
<g><path style="opacity:1" fill="#154338" d="M 878.5,320.5 C 879.499,361.663 879.832,402.997 879.5,444.5C 888.167,444.5 896.833,444.5 905.5,444.5C 905.5,444.833 905.5,445.167 905.5,445.5C 896.5,445.5 887.5,445.5 878.5,445.5C 878.5,403.833 878.5,362.167 878.5,320.5 Z"/></g>
<g><path style="opacity:1" fill="#115043" d="M 1114.5,418.5 C 1115.49,427.318 1115.83,436.318 1115.5,445.5C 1070.33,445.832 1025.33,445.499 980.5,444.5C 1025.17,444.5 1069.83,444.5 1114.5,444.5C 1114.5,435.833 1114.5,427.167 1114.5,418.5 Z"/></g>
<g><path style="opacity:1" fill="#125043" d="M 1617.5,443.5 C 1618.04,443.56 1618.38,443.893 1618.5,444.5C 1606.01,445.825 1593.67,445.825 1581.5,444.5C 1593.68,444.828 1605.68,444.495 1617.5,443.5 Z"/></g>
<g><path style="opacity:1" fill="#134b3e" d="M 2783.5,357.5 C 2784.5,386.662 2784.83,415.995 2784.5,445.5C 2751,445.832 2717.66,445.498 2684.5,444.5C 2717.5,444.5 2750.5,444.5 2783.5,444.5C 2783.5,415.5 2783.5,386.5 2783.5,357.5 Z"/></g>
<g><path style="opacity:1" fill="#0b7b68" d="M 186.5,648.5 C 154.268,662.616 122.268,677.282 90.5,692.5C 51.1273,642.397 25.794,585.73 14.5,522.5C 44.3956,517.157 74.3956,512.324 104.5,508C 107.833,507.333 111.167,507.333 114.5,508C 125.73,561.631 149.73,608.464 186.5,648.5 Z"/></g>
<g><path style="opacity:1" fill="#13473c" d="M 372.5,522.5 C 380.984,523.493 389.651,523.826 398.5,523.5C 389.658,524.822 380.658,524.822 371.5,523.5C 371.624,522.893 371.957,522.56 372.5,522.5 Z"/></g>
<g><path style="opacity:1" fill="#15493e" d="M 2006.5,519.5 C 2005.83,530.833 2005.17,542.167 2004.5,553.5C 2004.27,534.813 2004.77,516.146 2006,497.5C 2006.5,504.826 2006.67,512.159 2006.5,519.5 Z"/></g>
<g><path style="opacity:1" fill="#0d7261" d="M 2006.5,519.5 C 2007.88,597.835 2007.72,676.169 2006,754.5C 2004.53,687.521 2004.03,620.521 2004.5,553.5C 2005.17,542.167 2005.83,530.833 2006.5,519.5 Z"/></g>
<g><path style="opacity:1" fill="#5a5a5a" d="M 1702.5,555.5 C 1725.17,555.5 1747.83,555.5 1770.5,555.5C 1770.5,562.167 1770.5,568.833 1770.5,575.5C 1746.45,575.04 1722.45,575.54 1698.5,577C 1683.29,583.212 1675.63,594.545 1675.5,611C 1675.26,628.528 1683.26,640.528 1699.5,647C 1723.11,648.46 1746.78,648.96 1770.5,648.5C 1770.5,654.833 1770.5,661.167 1770.5,667.5C 1746.83,667.667 1723.16,667.5 1699.5,667C 1673.66,660.49 1659.16,643.99 1656,617.5C 1653.92,583.437 1669.42,562.77 1702.5,555.5 Z"/></g>
<g><path style="opacity:1" fill="#5a5b5a" d="M 1787.5,556.5 C 1793.83,556.5 1800.17,556.5 1806.5,556.5C 1806.5,593.5 1806.5,630.5 1806.5,667.5C 1800.17,667.5 1793.83,667.5 1787.5,667.5C 1787.5,630.5 1787.5,593.5 1787.5,556.5 Z"/></g>
<g><path style="opacity:1" fill="#343330" d="M 1787.5,556.5 C 1793.98,555.509 1800.65,555.176 1807.5,555.5C 1807.83,593.004 1807.5,630.337 1806.5,667.5C 1806.5,630.5 1806.5,593.5 1806.5,556.5C 1800.17,556.5 1793.83,556.5 1787.5,556.5 Z"/></g>
<g><path style="opacity:1" fill="#5a5a59" d="M 1883.5,555.5 C 1890.2,555.17 1896.87,555.503 1903.5,556.5C 1924.5,593.167 1945.5,629.833 1966.5,666.5C 1958.61,667.814 1950.77,667.814 1943,666.5C 1926.33,637.167 1909.67,607.833 1893,578.5C 1875.83,607.508 1859.16,636.842 1843,666.5C 1835.56,667.813 1828.06,667.813 1820.5,666.5C 1841.78,629.608 1862.78,592.608 1883.5,555.5 Z"/></g>
<g><path style="opacity:1" fill="#595958" d="M 1478.5,653.5 C 1476.5,653.5 1474.5,653.5 1472.5,653.5C 1472.66,651.143 1472.5,648.81 1472,646.5C 1465.98,655.173 1458.15,657.34 1448.5,653C 1438.44,644.446 1435.94,633.946 1441,621.5C 1445.81,613.115 1452.98,609.949 1462.5,612C 1465.94,613.274 1468.6,615.441 1470.5,618.5C 1470.78,619.289 1471.28,619.956 1472,620.5C 1472.5,608.838 1472.67,597.171 1472.5,585.5C 1474.5,585.5 1476.5,585.5 1478.5,585.5C 1478.5,608.167 1478.5,630.833 1478.5,653.5 Z"/></g>
<g><path style="opacity:1" fill="#373734" d="M 1478.5,653.5 C 1478.5,630.833 1478.5,608.167 1478.5,585.5C 1476.5,585.5 1474.5,585.5 1472.5,585.5C 1472.67,597.171 1472.5,608.838 1472,620.5C 1471.28,619.956 1470.78,619.289 1470.5,618.5C 1471.49,607.346 1471.83,596.012 1471.5,584.5C 1474.17,584.5 1476.83,584.5 1479.5,584.5C 1479.83,607.673 1479.5,630.673 1478.5,653.5 Z"/></g>
<g><path style="opacity:1" fill="#373633" d="M 1527.5,617.5 C 1527.22,618.289 1526.72,618.956 1526,619.5C 1525.5,608.172 1525.33,596.838 1525.5,585.5C 1523.5,585.5 1521.5,585.5 1519.5,585.5C 1519.5,608.167 1519.5,630.833 1519.5,653.5C 1518.5,630.673 1518.17,607.673 1518.5,584.5C 1521.17,584.5 1523.83,584.5 1526.5,584.5C 1526.17,595.679 1526.51,606.679 1527.5,617.5 Z"/></g>
<g><path style="opacity:1" fill="#595958" d="M 1527.5,617.5 C 1536.88,609.284 1546.05,609.617 1555,618.5C 1561.19,629.062 1560.86,639.395 1554,649.5C 1544.01,658.001 1534.67,657.334 1526,647.5C 1525.5,649.473 1525.34,651.473 1525.5,653.5C 1523.5,653.5 1521.5,653.5 1519.5,653.5C 1519.5,630.833 1519.5,608.167 1519.5,585.5C 1521.5,585.5 1523.5,585.5 1525.5,585.5C 1525.33,596.838 1525.5,608.172 1526,619.5C 1526.72,618.956 1527.22,618.289 1527.5,617.5 Z"/></g>
<g><path style="opacity:1" fill="#595959" d="M 1167.5,588.5 C 1176.98,587.94 1186.32,588.773 1195.5,591C 1202.32,596.132 1204.82,602.965 1203,611.5C 1201.12,619.716 1195.95,623.883 1187.5,624C 1183.18,624.499 1178.85,624.666 1174.5,624.5C 1174.5,634.167 1174.5,643.833 1174.5,653.5C 1172.17,653.5 1169.83,653.5 1167.5,653.5C 1167.5,631.833 1167.5,610.167 1167.5,588.5 Z"/></g>
<g><path style="opacity:1" fill="#343331" d="M 1185.5,596.5 C 1182.17,596.5 1178.83,596.5 1175.5,596.5C 1175.5,603.5 1175.5,610.5 1175.5,617.5C 1174.51,610.352 1174.18,603.019 1174.5,595.5C 1178.37,595.185 1182.04,595.518 1185.5,596.5 Z"/></g>
<g><path style="opacity:1" fill="#1d1c18" d="M 1185.5,596.5 C 1193.85,597.505 1197.01,602.172 1195,610.5C 1194.02,614.389 1191.52,616.556 1187.5,617C 1183.51,617.499 1179.51,617.666 1175.5,617.5C 1175.5,610.5 1175.5,603.5 1175.5,596.5C 1178.83,596.5 1182.17,596.5 1185.5,596.5 Z"/></g>
<g><path style="opacity:1" fill="#575757" d="M 1330.5,611.5 C 1347.02,610.356 1355.02,618.023 1354.5,634.5C 1344.17,634.5 1333.83,634.5 1323.5,634.5C 1324.26,646.877 1330.59,651.377 1342.5,648C 1345.36,646.135 1347.86,643.968 1350,641.5C 1351.63,642.289 1353.13,643.289 1354.5,644.5C 1346.68,655.455 1336.68,657.955 1324.5,652C 1313.97,641.491 1312.8,629.991 1321,617.5C 1323.84,614.837 1327.01,612.837 1330.5,611.5 Z"/></g>
<g><path style="opacity:1" fill="#575757" d="M 1220.5,611.5 C 1233.82,610.238 1242.65,615.905 1247,628.5C 1247.5,646.667 1238.67,655.5 1220.5,655C 1206.03,648.896 1201.2,638.396 1206,623.5C 1209.54,617.78 1214.37,613.78 1220.5,611.5 Z"/></g>
<g><path style="opacity:1" fill="#585858" d="M 1280.5,611.5 C 1282.34,612.122 1283.5,613.456 1284,615.5C 1286.94,623.662 1290.28,631.662 1294,639.5C 1297.53,631.246 1300.86,622.913 1304,614.5C 1306.38,613.565 1308.88,613.232 1311.5,613.5C 1306.3,627.58 1300.8,641.58 1295,655.5C 1290.5,645.833 1286,636.167 1281.5,626.5C 1277.17,635.833 1272.83,645.167 1268.5,654.5C 1262.45,641.364 1256.79,628.031 1251.5,614.5C 1254.03,613.223 1256.53,613.223 1259,614.5C 1262.14,622.913 1265.47,631.246 1269,639.5C 1273.13,630.264 1276.97,620.93 1280.5,611.5 Z"/></g>
<g><path style="opacity:1" fill="#585858" d="M 1380.5,611.5 C 1387.36,609.743 1389.7,612.076 1387.5,618.5C 1381.01,616.927 1376.17,618.927 1373,624.5C 1371.58,634.086 1371.08,643.753 1371.5,653.5C 1369.5,653.5 1367.5,653.5 1365.5,653.5C 1365.5,639.833 1365.5,626.167 1365.5,612.5C 1367.5,612.5 1369.5,612.5 1371.5,612.5C 1371.34,614.857 1371.5,617.19 1372,619.5C 1374.07,615.923 1376.91,613.256 1380.5,611.5 Z"/></g>
<g><path style="opacity:1" fill="#575757" d="M 1406.5,611.5 C 1423.52,609.856 1431.85,617.523 1431.5,634.5C 1421.17,634.5 1410.83,634.5 1400.5,634.5C 1401.3,646.893 1407.63,651.393 1419.5,648C 1422.11,645.912 1424.61,643.746 1427,641.5C 1428.63,642.289 1430.13,643.289 1431.5,644.5C 1423.68,655.455 1413.68,657.955 1401.5,652C 1390.97,641.491 1389.8,629.991 1398,617.5C 1400.74,615.248 1403.57,613.248 1406.5,611.5 Z"/></g>
<g><path style="opacity:1" fill="#585858" d="M 2048.5,612.5 C 2056.5,612.5 2064.5,612.5 2072.5,612.5C 2072.5,614.5 2072.5,616.5 2072.5,618.5C 2064.83,618.334 2057.16,618.5 2049.5,619C 2045.05,621.071 2043.05,624.571 2043.5,629.5C 2043.05,634.429 2045.05,637.929 2049.5,640C 2057.16,640.5 2064.83,640.666 2072.5,640.5C 2072.5,642.5 2072.5,644.5 2072.5,646.5C 2064.16,646.666 2055.83,646.5 2047.5,646C 2038.69,640.6 2035.53,632.767 2038,622.5C 2040.11,617.557 2043.61,614.224 2048.5,612.5 Z"/></g>
<g><path style="opacity:1" fill="#585858" d="M 2075.5,613.5 C 2077.97,612.366 2080.63,612.199 2083.5,613C 2087.68,618.008 2092.01,622.841 2096.5,627.5C 2100.99,622.841 2105.32,618.008 2109.5,613C 2112.17,612.333 2114.83,612.333 2117.5,613C 2111.29,619.539 2105.46,626.373 2100,633.5C 2099.5,637.821 2099.33,642.154 2099.5,646.5C 2097.5,646.5 2095.5,646.5 2093.5,646.5C 2093.67,642.154 2093.5,637.821 2093,633.5C 2087.67,626.344 2081.84,619.677 2075.5,613.5 Z"/></g>
<g><path style="opacity:1" fill="#595858" d="M 2121.5,612.5 C 2132.58,612.069 2143.58,612.569 2154.5,614C 2158.47,618.798 2158.47,623.632 2154.5,628.5C 2158.81,632.453 2159.64,637.12 2157,642.5C 2155.79,644.049 2154.29,645.215 2152.5,646C 2142.17,646.5 2131.84,646.666 2121.5,646.5C 2121.5,635.167 2121.5,623.833 2121.5,612.5 Z"/></g>
<g><path style="opacity:1" fill="#5a5a5a" d="M 2164.5,612.5 C 2174.5,612.5 2184.5,612.5 2194.5,612.5C 2194.5,614.5 2194.5,616.5 2194.5,618.5C 2186.5,618.5 2178.5,618.5 2170.5,618.5C 2169.51,625.982 2169.17,633.648 2169.5,641.5C 2177.83,641.5 2186.17,641.5 2194.5,641.5C 2194.5,643.167 2194.5,644.833 2194.5,646.5C 2184.5,646.5 2174.5,646.5 2164.5,646.5C 2164.5,635.167 2164.5,623.833 2164.5,612.5 Z"/></g>
<g><path style="opacity:1" fill="#585858" d="M 2206.5,618.5 C 2205.51,627.652 2205.17,636.985 2205.5,646.5C 2203.83,646.5 2202.17,646.5 2200.5,646.5C 2200.5,635.167 2200.5,623.833 2200.5,612.5C 2210.17,612.334 2219.84,612.5 2229.5,613C 2236.13,616.091 2238.63,621.257 2237,628.5C 2235.78,631.779 2233.95,634.613 2231.5,637C 2233.78,640.286 2236.45,643.286 2239.5,646C 2236.83,646.667 2234.17,646.667 2231.5,646C 2228.98,643.651 2226.65,641.151 2224.5,638.5C 2219.88,637.507 2215.21,637.173 2210.5,637.5C 2210.5,635.5 2210.5,633.5 2210.5,631.5C 2216.51,631.666 2222.51,631.499 2228.5,631C 2232.41,626.925 2232.41,622.925 2228.5,619C 2221.17,618.5 2213.84,618.334 2206.5,618.5 Z"/></g>
<g><path style="opacity:1" fill="#5a5b5a" d="M 2263.5,612.5 C 2263.5,623.833 2263.5,635.167 2263.5,646.5C 2261.83,646.5 2260.17,646.5 2258.5,646.5C 2258.5,635.167 2258.5,623.833 2258.5,612.5C 2260.17,612.5 2261.83,612.5 2263.5,612.5 Z"/></g>
<g><path style="opacity:1" fill="#464645" d="M 2263.5,612.5 C 2264.49,623.988 2264.83,635.655 2264.5,647.5C 2262.26,647.795 2260.26,647.461 2258.5,646.5C 2260.17,646.5 2261.83,646.5 2263.5,646.5C 2263.5,635.167 2263.5,623.833 2263.5,612.5 Z"/></g>
<g><path style="opacity:1" fill="#585857" d="M 2277.5,622.5 C 2277.44,621.957 2277.11,621.624 2276.5,621.5C 2275.5,629.807 2275.17,638.14 2275.5,646.5C 2273.83,646.5 2272.17,646.5 2270.5,646.5C 2270.33,635.495 2270.5,624.495 2271,613.5C 2271.69,612.643 2272.52,611.977 2273.5,611.5C 2282.79,619.284 2291.62,627.618 2300,636.5C 2300.5,628.173 2300.67,619.84 2300.5,611.5C 2302.5,611.5 2304.5,611.5 2306.5,611.5C 2306.67,622.838 2306.5,634.172 2306,645.5C 2304.87,647.211 2303.37,647.711 2301.5,647C 2293.3,638.965 2285.3,630.798 2277.5,622.5 Z"/></g>
<g><path style="opacity:1" fill="#575757" d="M 2309.5,612.5 C 2320.5,612.5 2331.5,612.5 2342.5,612.5C 2342.5,614.5 2342.5,616.5 2342.5,618.5C 2338.17,618.5 2333.83,618.5 2329.5,618.5C 2329.5,628.167 2329.5,637.833 2329.5,647.5C 2327.5,647.5 2325.5,647.5 2323.5,647.5C 2323.5,637.833 2323.5,628.167 2323.5,618.5C 2318.83,618.5 2314.17,618.5 2309.5,618.5C 2309.5,616.5 2309.5,614.5 2309.5,612.5 Z"/></g>
<g><path style="opacity:1" fill="#595959" d="M 2352.5,640.5 C 2360.32,641.492 2368.32,641.826 2376.5,641.5C 2376.5,643.167 2376.5,644.833 2376.5,646.5C 2366.5,646.5 2356.5,646.5 2346.5,646.5C 2346.5,635.167 2346.5,623.833 2346.5,612.5C 2356.83,612.5 2367.17,612.5 2377.5,612.5C 2377.5,614.5 2377.5,616.5 2377.5,618.5C 2369.17,618.5 2360.83,618.5 2352.5,618.5C 2352.5,625.833 2352.5,633.167 2352.5,640.5 Z"/></g>
<g><path style="opacity:1" fill="#595959" d="M 2382.5,612.5 C 2384.5,612.5 2386.5,612.5 2388.5,612.5C 2388.5,621.833 2388.5,631.167 2388.5,640.5C 2396.17,640.5 2403.83,640.5 2411.5,640.5C 2411.5,642.5 2411.5,644.5 2411.5,646.5C 2401.83,646.5 2392.17,646.5 2382.5,646.5C 2382.5,635.167 2382.5,623.833 2382.5,612.5 Z"/></g>
<g><path style="opacity:1" fill="#575757" d="M 2416.5,612.5 C 2418.5,612.5 2420.5,612.5 2422.5,612.5C 2422.5,621.833 2422.5,631.167 2422.5,640.5C 2430.17,640.5 2437.83,640.5 2445.5,640.5C 2445.5,642.5 2445.5,644.5 2445.5,646.5C 2435.83,646.5 2426.17,646.5 2416.5,646.5C 2416.5,635.167 2416.5,623.833 2416.5,612.5 Z"/></g>
<g><path style="opacity:1" fill="#585858" d="M 2449.5,612.5 C 2459.83,612.5 2470.17,612.5 2480.5,612.5C 2480.5,614.5 2480.5,616.5 2480.5,618.5C 2472.17,618.5 2463.83,618.5 2455.5,618.5C 2455.5,625.833 2455.5,633.167 2455.5,640.5C 2463.83,640.5 2472.17,640.5 2480.5,640.5C 2480.5,642.5 2480.5,644.5 2480.5,646.5C 2470.17,646.5 2459.83,646.5 2449.5,646.5C 2449.5,635.167 2449.5,623.833 2449.5,612.5 Z"/></g>
<g><path style="opacity:1" fill="#575757" d="M 2495.5,612.5 C 2503.83,612.5 2512.17,612.5 2520.5,612.5C 2520.5,614.5 2520.5,616.5 2520.5,618.5C 2512.83,618.334 2505.16,618.5 2497.5,619C 2493.05,621.071 2491.05,624.571 2491.5,629.5C 2491.05,634.429 2493.05,637.929 2497.5,640C 2505.16,640.5 2512.83,640.666 2520.5,640.5C 2520.5,642.5 2520.5,644.5 2520.5,646.5C 2512.16,646.666 2503.83,646.5 2495.5,646C 2484.39,639.26 2481.89,630.093 2488,618.5C 2490.48,616.361 2492.98,614.361 2495.5,612.5 Z"/></g>
<g><path style="opacity:1" fill="#5a5a59" d="M 2523.5,612.5 C 2534.17,612.5 2544.83,612.5 2555.5,612.5C 2555.5,614.5 2555.5,616.5 2555.5,618.5C 2551.17,618.5 2546.83,618.5 2542.5,618.5C 2542.5,627.833 2542.5,637.167 2542.5,646.5C 2540.5,646.5 2538.5,646.5 2536.5,646.5C 2536.5,637.167 2536.5,627.833 2536.5,618.5C 2532.17,618.5 2527.83,618.5 2523.5,618.5C 2523.5,616.5 2523.5,614.5 2523.5,612.5 Z"/></g>
<g><path style="opacity:1" fill="#585858" d="M 2559.5,612.5 C 2561.5,612.5 2563.5,612.5 2565.5,612.5C 2565.09,621.25 2565.59,629.916 2567,638.5C 2573.22,641.893 2579.72,642.393 2586.5,640C 2587.33,639.167 2588.17,638.333 2589,637.5C 2590.41,629.251 2590.91,620.917 2590.5,612.5C 2592.5,612.5 2594.5,612.5 2596.5,612.5C 2596.67,620.84 2596.5,629.173 2596,637.5C 2592,645.001 2585.67,648.334 2577,647.5C 2568.74,648.217 2563.08,644.883 2560,637.5C 2559.5,629.173 2559.33,620.84 2559.5,612.5 Z"/></g>
<g><path style="opacity:1" fill="#595959" d="M 2630.5,646.5 C 2621.17,646.5 2611.83,646.5 2602.5,646.5C 2602.5,644.833 2602.5,643.167 2602.5,641.5C 2611.68,641.827 2620.68,641.493 2629.5,640.5C 2633.11,638.148 2633.44,635.315 2630.5,632C 2622.5,631.667 2614.5,631.333 2606.5,631C 2599.49,624.427 2599.83,618.427 2607.5,613C 2617.16,612.5 2626.83,612.334 2636.5,612.5C 2636.5,614.5 2636.5,616.5 2636.5,618.5C 2627.49,618.334 2618.49,618.5 2609.5,619C 2606.83,621.333 2606.83,623.667 2609.5,626C 2616.5,626.333 2623.5,626.667 2630.5,627C 2637.53,628.878 2640.03,633.378 2638,640.5C 2636.52,643.817 2634.02,645.817 2630.5,646.5 Z"/></g>
<g><path style="opacity:1" fill="#585858" d="M 1563.5,614.5 C 1566.23,613.183 1569.06,613.183 1572,614.5C 1575.39,623.614 1579.06,632.614 1583,641.5C 1586.83,632.5 1590.67,623.5 1594.5,614.5C 1596.74,613.526 1599.08,613.192 1601.5,613.5C 1593.17,633.5 1584.83,653.5 1576.5,673.5C 1573.75,673.813 1571.09,673.48 1568.5,672.5C 1572.11,664.945 1575.44,657.278 1578.5,649.5C 1574.06,637.492 1569.06,625.825 1563.5,614.5 Z"/></g>
<g><path style="opacity:1" fill="#1c1b17" d="M 1220.5,618.5 C 1229.05,616.86 1235.22,619.86 1239,627.5C 1241.41,636.613 1238.58,643.446 1230.5,648C 1216.07,648.893 1209.9,642.06 1212,627.5C 1213.69,623.315 1216.52,620.315 1220.5,618.5 Z"/></g>
<g><path style="opacity:1" fill="#1d1c18" d="M 1331.5,617.5 C 1340.48,616.295 1345.81,619.962 1347.5,628.5C 1339.5,628.5 1331.5,628.5 1323.5,628.5C 1323.97,623.215 1326.64,619.548 1331.5,617.5 Z"/></g>
<g><path style="opacity:1" fill="#1d1c18" d="M 1408.5,617.5 C 1417.42,616.272 1422.75,619.939 1424.5,628.5C 1416.5,628.5 1408.5,628.5 1400.5,628.5C 1400.87,623.137 1403.53,619.471 1408.5,617.5 Z"/></g>
<g><path style="opacity:1" fill="#1d1c18" d="M 1454.5,618.5 C 1467.91,618.413 1473.74,625.079 1472,638.5C 1468.34,647.745 1461.84,650.578 1452.5,647C 1449.53,644.9 1447.7,642.066 1447,638.5C 1444.3,629.568 1446.8,622.902 1454.5,618.5 Z"/></g>
<g><path style="opacity:1" fill="#1c1b18" d="M 1534.5,618.5 C 1542.13,617.065 1547.63,619.732 1551,626.5C 1552.95,634.455 1551.12,641.289 1545.5,647C 1536.1,650.546 1529.6,647.713 1526,638.5C 1523.92,629.534 1526.75,622.867 1534.5,618.5 Z"/></g>
<g><path style="opacity:1" fill="#1d1c18" d="M 2127.5,618.5 C 2135.22,618.2 2142.89,618.533 2150.5,619.5C 2151.77,621.695 2151.77,623.861 2150.5,626C 2144.18,626.5 2137.84,626.666 2131.5,626.5C 2131.5,628.167 2131.5,629.833 2131.5,631.5C 2137.51,631.334 2143.51,631.501 2149.5,632C 2153.39,634.808 2153.39,637.474 2149.5,640C 2142.17,640.5 2134.84,640.666 2127.5,640.5C 2127.5,633.167 2127.5,625.833 2127.5,618.5 Z"/></g>
<g><path style="opacity:1" fill="#3c3b39" d="M 2206.5,618.5 C 2206.5,628.167 2206.5,637.833 2206.5,647.5C 2204.26,647.795 2202.26,647.461 2200.5,646.5C 2202.17,646.5 2203.83,646.5 2205.5,646.5C 2205.17,636.985 2205.51,627.652 2206.5,618.5 Z"/></g>
<g><path style="opacity:1" fill="#434342" d="M 2277.5,622.5 C 2276.51,630.65 2276.17,638.983 2276.5,647.5C 2274.26,647.795 2272.26,647.461 2270.5,646.5C 2272.17,646.5 2273.83,646.5 2275.5,646.5C 2275.17,638.14 2275.5,629.807 2276.5,621.5C 2277.11,621.624 2277.44,621.957 2277.5,622.5 Z"/></g>
<g><path style="opacity:1" fill="#585857" d="M 2174.5,626.5 C 2180.83,626.5 2187.17,626.5 2193.5,626.5C 2193.5,628.167 2193.5,629.833 2193.5,631.5C 2187.17,631.5 2180.83,631.5 2174.5,631.5C 2174.5,629.833 2174.5,628.167 2174.5,626.5 Z"/></g>
<g><path style="opacity:1" fill="#565656" d="M 2356.5,626.5 C 2363.17,626.5 2369.83,626.5 2376.5,626.5C 2376.5,628.167 2376.5,629.833 2376.5,631.5C 2369.83,631.5 2363.17,631.5 2356.5,631.5C 2356.5,629.833 2356.5,628.167 2356.5,626.5 Z"/></g>
<g><path style="opacity:1" fill="#575757" d="M 2460.5,626.5 C 2466.83,626.5 2473.17,626.5 2479.5,626.5C 2479.5,628.167 2479.5,629.833 2479.5,631.5C 2473.17,631.5 2466.83,631.5 2460.5,631.5C 2460.5,629.833 2460.5,628.167 2460.5,626.5 Z"/></g>
<g><path style="opacity:1" fill="#3e3e3b" d="M 2170.5,618.5 C 2170.5,625.833 2170.5,633.167 2170.5,640.5C 2178.83,640.5 2187.17,640.5 2195.5,640.5C 2195.79,642.735 2195.46,644.735 2194.5,646.5C 2194.5,644.833 2194.5,643.167 2194.5,641.5C 2186.17,641.5 2177.83,641.5 2169.5,641.5C 2169.17,633.648 2169.51,625.982 2170.5,618.5 Z"/></g>
<g><path style="opacity:1" fill="#373735" d="M 2164.5,612.5 C 2164.5,623.833 2164.5,635.167 2164.5,646.5C 2174.5,646.5 2184.5,646.5 2194.5,646.5C 2184.35,647.494 2174.01,647.828 2163.5,647.5C 2163.17,635.655 2163.51,623.988 2164.5,612.5 Z"/></g>
<g><path style="opacity:1" fill="#393937" d="M 2352.5,640.5 C 2360.83,640.5 2369.17,640.5 2377.5,640.5C 2377.5,642.833 2377.5,645.167 2377.5,647.5C 2366.99,647.828 2356.65,647.494 2346.5,646.5C 2356.5,646.5 2366.5,646.5 2376.5,646.5C 2376.5,644.833 2376.5,643.167 2376.5,641.5C 2368.32,641.826 2360.32,641.492 2352.5,640.5 Z"/></g>
<g><path style="opacity:1" fill="#393936" d="M 2629.5,640.5 C 2620.68,641.493 2611.68,641.827 2602.5,641.5C 2602.5,643.167 2602.5,644.833 2602.5,646.5C 2611.83,646.5 2621.17,646.5 2630.5,646.5C 2621.01,647.494 2611.35,647.827 2601.5,647.5C 2601.5,645.167 2601.5,642.833 2601.5,640.5C 2610.83,640.5 2620.17,640.5 2629.5,640.5 Z"/></g>
<g><path style="opacity:1" fill="#5a5a5a" d="M 186.5,648.5 C 218.404,681.3 256.071,705.3 299.5,720.5C 289.166,752.501 278.833,784.501 268.5,816.5C 196.772,792.743 137.439,751.409 90.5,692.5C 122.268,677.282 154.268,662.616 186.5,648.5 Z"/></g>
<g><path style="opacity:1" fill="#0b7b68" d="M 268.5,816.5 C 278.833,784.501 289.166,752.501 299.5,720.5C 389.561,747.155 473.228,733.989 550.5,681C 561.609,672.395 572.275,663.228 582.5,653.5C 606.653,677.153 630.653,700.986 654.5,725C 574.397,802.351 478.397,839.018 366.5,835C 332.814,833.598 300.147,827.431 268.5,816.5 Z"/></g>
<g><path style="opacity:1" fill="#4e4e4d" d="M 1934.5,682.5 C 1936.2,684.305 1937.03,686.639 1937,689.5C 1939.27,688.065 1941.27,688.398 1943,690.5C 1943.82,693.227 1943.65,695.894 1942.5,698.5C 1941.52,695.914 1941.19,693.247 1941.5,690.5C 1939.86,690.286 1938.36,690.62 1937,691.5C 1936.81,693.9 1936.31,696.234 1935.5,698.5C 1934.51,693.208 1934.17,687.875 1934.5,682.5 Z"/></g>
<g><path style="opacity:1" fill="#4a4a48" d="M 1966.5,683.5 C 1967.81,685.571 1968.48,688.071 1968.5,691C 1968.17,693.5 1967.83,696 1967.5,698.5C 1966.51,693.544 1966.17,688.544 1966.5,683.5 Z"/></g>
<g><path style="opacity:1" fill="#545453" d="M 1680.5,683.5 C 1682.34,683.639 1682.67,684.306 1681.5,685.5C 1680.7,685.043 1680.37,684.376 1680.5,683.5 Z"/></g>
<g><path style="opacity:1" fill="#575757" d="M 1735.5,683.5 C 1737.34,683.639 1737.67,684.306 1736.5,685.5C 1735.7,685.043 1735.37,684.376 1735.5,683.5 Z"/></g>
<g><path style="opacity:1" fill="#545453" d="M 1774.5,683.5 C 1777.19,683.336 1779.85,683.503 1782.5,684C 1783.45,684.718 1783.62,685.551 1783,686.5C 1778.91,683.524 1775.57,684.191 1773,688.5C 1772.4,696.531 1775.74,698.865 1783,695.5C 1783.45,697.409 1782.61,698.576 1780.5,699C 1772.78,699.111 1769.62,695.278 1771,687.5C 1772.38,686.295 1773.54,684.962 1774.5,683.5 Z"/></g>
<g><path style="opacity:1" fill="#4f4e4e" d="M 1730.5,685.5 C 1732.19,686.184 1733.19,687.517 1733.5,689.5C 1732.91,692.503 1732.25,695.503 1731.5,698.5C 1731.02,695.373 1730.02,692.54 1728.5,690C 1730.11,688.951 1730.77,687.451 1730.5,685.5 Z"/></g>
<g><path style="opacity:1" fill="#515050" d="M 1833.5,683.5 C 1836.07,683.148 1838.41,683.648 1840.5,685C 1839.18,686.628 1837.85,686.461 1836.5,684.5C 1835.28,684.887 1834.61,685.72 1834.5,687C 1836.29,689.164 1838.46,690.998 1841,692.5C 1840.34,700.128 1837.17,701.294 1831.5,696C 1832,695.5 1832.5,695 1833,694.5C 1835.14,698.202 1837.31,698.369 1839.5,695C 1838.08,692.362 1835.92,690.528 1833,689.5C 1832.32,687.402 1832.49,685.402 1833.5,683.5 Z"/></g>
<g><path style="opacity:1" fill="#525251" d="M 1888.5,685.5 C 1890.09,686.474 1891.09,687.974 1891.5,690C 1890.87,692.8 1890.21,695.634 1889.5,698.5C 1889.02,695.373 1888.02,692.54 1886.5,690C 1888.11,688.951 1888.77,687.451 1888.5,685.5 Z"/></g>
<g><path style="opacity:1" fill="#525251" d="M 1929.5,685.5 C 1931.09,686.474 1932.09,687.974 1932.5,690C 1931.87,692.8 1931.21,695.634 1930.5,698.5C 1930.02,695.373 1929.02,692.54 1927.5,690C 1929.11,688.951 1929.77,687.451 1929.5,685.5 Z"/></g>
<g><path style="opacity:1" fill="#515150" d="M 1680.5,688.5 C 1681.78,689.694 1682.44,691.36 1682.5,693.5C 1682.17,695.167 1681.83,696.833 1681.5,698.5C 1680.51,695.232 1680.18,691.898 1680.5,688.5 Z"/></g>
<g><path style="opacity:1" fill="#515151" d="M 1721.5,688.5 C 1723.14,688.286 1724.64,688.62 1726,689.5C 1726.67,692.5 1726.67,695.5 1726,698.5C 1725.67,696.167 1725.33,693.833 1725,691.5C 1723.33,690.167 1721.67,690.167 1720,691.5C 1719.67,693.833 1719.33,696.167 1719,698.5C 1718.5,695.518 1718.34,692.518 1718.5,689.5C 1719.79,689.737 1720.79,689.404 1721.5,688.5 Z"/></g>
<g><path style="opacity:1" fill="#4f4e4e" d="M 1735.5,689.5 C 1736.76,690.514 1737.43,692.014 1737.5,694C 1737.17,695.5 1736.83,697 1736.5,698.5C 1735.52,695.572 1735.18,692.572 1735.5,689.5 Z"/></g>
<g><path style="opacity:1" fill="#4f4f4e" d="M 1754.5,688.5 C 1756.86,688.674 1759.19,689.007 1761.5,689.5C 1761.67,693.514 1761.5,697.514 1761,701.5C 1757.78,704.355 1754.94,704.021 1752.5,700.5C 1752.83,700.167 1753.17,699.833 1753.5,699.5C 1755.18,701.104 1757.18,701.771 1759.5,701.5C 1759.5,700.5 1759.5,699.5 1759.5,698.5C 1751.04,698.538 1749.38,695.204 1754.5,688.5 Z"/></g>
<g><path style="opacity:1" fill="#515151" d="M 1798.5,697.5 C 1797.85,697.804 1797.18,698.137 1796.5,698.5C 1795.17,693.167 1795.17,687.833 1796.5,682.5C 1797.17,684.833 1797.83,687.167 1798.5,689.5C 1802.43,688.233 1804.76,689.733 1805.5,694C 1804.61,698.265 1802.27,699.432 1798.5,697.5 Z"/></g>
<g><path style="opacity:1" fill="#50504f" d="M 1863.5,688.5 C 1865.22,690.658 1866.05,693.325 1866,696.5C 1867.33,697.833 1868.67,697.833 1870,696.5C 1870.19,694.1 1870.69,691.766 1871.5,689.5C 1873.01,692.941 1872.67,696.108 1870.5,699C 1868.19,699.756 1866.19,699.256 1864.5,697.5C 1863.59,694.579 1863.26,691.579 1863.5,688.5 Z"/></g>
<g><path style="opacity:1" fill="#4d4d4c" d="M 1878.5,688.5 C 1879.68,688.281 1880.68,688.614 1881.5,689.5C 1880.37,690.262 1879.21,690.929 1878,691.5C 1877.81,693.9 1877.31,696.234 1876.5,698.5C 1875.52,695.572 1875.18,692.572 1875.5,689.5C 1876.79,689.737 1877.79,689.404 1878.5,688.5 Z"/></g>
<g><path style="opacity:1" fill="#515150" d="M 1658.5,683.5 C 1661.69,683.02 1664.52,683.686 1667,685.5C 1668.04,688.804 1666.88,690.971 1663.5,692C 1664.64,693.973 1665.97,695.807 1667.5,697.5C 1667.17,697.833 1666.83,698.167 1666.5,698.5C 1664.51,696.334 1662.67,694.001 1661,691.5C 1660.81,693.9 1660.31,696.234 1659.5,698.5C 1658.51,693.544 1658.17,688.544 1658.5,683.5 Z"/></g>
<g><path style="opacity:1" fill="#1e1d19" d="M 1660.5,685.5 C 1663.95,684.756 1665.62,686.09 1665.5,689.5C 1663.83,689.5 1662.17,689.5 1660.5,689.5C 1660.5,688.167 1660.5,686.833 1660.5,685.5 Z"/></g>
<g><path style="opacity:1" fill="#1f1e1a" d="M 1754.5,690.5 C 1759.33,690.385 1760.66,692.552 1758.5,697C 1753.79,697.082 1752.46,694.915 1754.5,690.5 Z"/></g>
<g><path style="opacity:1" fill="#201f1b" d="M 1798.5,697.5 C 1796.24,692.74 1797.57,690.573 1802.5,691C 1804.66,695.448 1803.33,697.615 1798.5,697.5 Z"/></g>
<g><path style="opacity:1" fill="#505050" d="M 1957.5,683.5 C 1960.2,687.887 1962.53,692.554 1964.5,697.5C 1964.17,697.833 1963.83,698.167 1963.5,698.5C 1959.83,693.167 1956.17,693.167 1952.5,698.5C 1952.17,698 1951.83,697.5 1951.5,697C 1953.65,692.533 1955.65,688.033 1957.5,683.5 Z"/></g>
<g><path style="opacity:1" fill="#22211e" d="M 1957.5,687.5 C 1958.93,688.78 1959.6,690.447 1959.5,692.5C 1958.02,692.762 1956.69,692.429 1955.5,691.5C 1956.18,690.14 1956.85,688.807 1957.5,687.5 Z"/></g>
<g><path style="opacity:1" fill="#515151" d="M 1685.5,688.5 C 1687.34,689.673 1689.17,689.673 1691,688.5C 1692.26,688.759 1693.26,689.426 1694,690.5C 1694.82,693.227 1694.65,695.894 1693.5,698.5C 1692.52,695.914 1692.19,693.247 1692.5,690.5C 1690.86,690.286 1689.36,690.62 1688,691.5C 1687.81,693.9 1687.31,696.234 1686.5,698.5C 1685.51,695.232 1685.18,691.898 1685.5,688.5 Z"/></g>
<g><path style="opacity:1" fill="#4d4d4c" d="M 1709.5,688.5 C 1713.83,688.167 1715.83,690.167 1715.5,694.5C 1713.08,694.192 1710.74,694.526 1708.5,695.5C 1710.58,698.119 1712.74,698.119 1715,695.5C 1714.85,698.949 1713.02,700.115 1709.5,699C 1705.57,695.504 1705.57,692.004 1709.5,688.5 Z"/></g>
<g><path style="opacity:1" fill="#1d1c19" d="M 1709.5,690.5 C 1710.98,690.238 1712.31,690.571 1713.5,691.5C 1711.93,692.631 1710.26,692.798 1708.5,692C 1709.06,691.617 1709.39,691.117 1709.5,690.5 Z"/></g>
<g><path style="opacity:1" fill="#4c4c4b" d="M 1809.5,688.5 C 1814.02,688.02 1816.35,690.02 1816.5,694.5C 1814.08,694.192 1811.74,694.526 1809.5,695.5C 1811.36,698.019 1813.36,698.019 1815.5,695.5C 1816.57,697.325 1815.9,698.492 1813.5,699C 1809.53,699.682 1807.53,698.016 1807.5,694C 1807.39,691.822 1808.06,689.988 1809.5,688.5 Z"/></g>
<g><path style="opacity:1" fill="#1e1d19" d="M 1809.5,690.5 C 1811.43,690.231 1813.1,690.731 1814.5,692C 1813.67,692.167 1812.83,692.333 1812,692.5C 1810.62,692.316 1809.79,691.649 1809.5,690.5 Z"/></g>
<g><path style="opacity:1" fill="#50504f" d="M 1822.5,688.5 C 1823.38,688.369 1824.04,688.702 1824.5,689.5C 1823.37,690.262 1822.21,690.929 1821,691.5C 1820.81,693.9 1820.31,696.234 1819.5,698.5C 1818.52,695.572 1818.18,692.572 1818.5,689.5C 1820.1,689.768 1821.43,689.434 1822.5,688.5 Z"/></g>
<g><path style="opacity:1" fill="#494948" d="M 1845.5,688.5 C 1849.69,688.362 1852.03,690.362 1852.5,694.5C 1849.75,694.187 1847.09,694.52 1844.5,695.5C 1846.58,698.119 1848.74,698.119 1851,695.5C 1850.85,698.949 1849.02,700.115 1845.5,699C 1841.57,695.504 1841.57,692.004 1845.5,688.5 Z"/></g>
<g><path style="opacity:1" fill="#50504f" d="M 1908.5,689.5 C 1910.14,690.749 1911.3,692.416 1912,694.5C 1913,692.833 1914,691.167 1915,689.5C 1916.25,691.001 1917.25,692.668 1918,694.5C 1918.75,692.668 1919.75,691.001 1921,689.5C 1921.22,692.853 1920.22,695.853 1918,698.5C 1917,696.5 1916,694.5 1915,692.5C 1914,694.5 1913,696.5 1912,698.5C 1910.28,695.721 1909.11,692.721 1908.5,689.5 Z"/></g>
<g><path style="opacity:1" fill="#4e4e4e" d="M 1743.5,688.5 C 1745.72,688.178 1747.56,688.845 1749,690.5C 1749.82,693.227 1749.65,695.894 1748.5,698.5C 1747.52,695.914 1747.19,693.247 1747.5,690.5C 1745.86,690.286 1744.36,690.62 1743,691.5C 1742.81,693.9 1742.31,696.234 1741.5,698.5C 1740.52,695.572 1740.18,692.572 1740.5,689.5C 1741.79,689.737 1742.79,689.404 1743.5,688.5 Z"/></g>
<g><path style="opacity:1" fill="#515150" d="M 1696.5,690.5 C 1697.08,689.227 1697.74,689.227 1698.5,690.5C 1699.33,692.167 1700.17,693.833 1701,695.5C 1701.47,693.754 1702.14,692.087 1703,690.5C 1703.72,689.549 1704.55,689.383 1705.5,690C 1704.19,692.941 1702.69,695.774 1701,698.5C 1699.2,695.901 1697.7,693.234 1696.5,690.5 Z"/></g>
<g><path style="opacity:1" fill="#50504f" d="M 1856.5,688.5 C 1862.99,689.484 1862.99,690.318 1856.5,691C 1855.07,693.267 1855.4,695.267 1857.5,697C 1858.78,697.684 1859.95,697.517 1861,696.5C 1861.62,697.449 1861.45,698.282 1860.5,699C 1855.18,699.34 1853.01,696.84 1854,691.5C 1855.04,690.627 1855.88,689.627 1856.5,688.5 Z"/></g>
<g><path style="opacity:1" fill="#515151" d="M 1785.5,689.5 C 1787.52,690.486 1788.85,692.153 1789.5,694.5C 1790.68,692.954 1791.68,691.287 1792.5,689.5C 1792.83,689.833 1793.17,690.167 1793.5,690.5C 1791.77,694.962 1789.77,699.295 1787.5,703.5C 1787.17,703.167 1786.83,702.833 1786.5,702.5C 1787.3,701.059 1787.97,699.559 1788.5,698C 1787.59,695.105 1786.59,692.272 1785.5,689.5 Z"/></g>
<g><path style="opacity:1" fill="#515150" d="M 1892.5,689.5 C 1894.69,690.823 1896.19,692.823 1897,695.5C 1897.86,693.913 1898.53,692.246 1899,690.5C 1899.72,689.549 1900.55,689.383 1901.5,690C 1899.45,694.651 1897.12,699.151 1894.5,703.5C 1894.17,703.167 1893.83,702.833 1893.5,702.5C 1894.45,700.941 1895.11,699.274 1895.5,697.5C 1894.49,694.817 1893.49,692.151 1892.5,689.5 Z"/></g>
<g><path style="opacity:1" fill="#4b4b4a" d="M 1671.5,688.5 C 1675.69,688.362 1678.03,690.362 1678.5,694.5C 1676.08,694.192 1673.74,694.526 1671.5,695.5C 1672.75,697.69 1674.41,698.023 1676.5,696.5C 1677.6,697.631 1677.27,698.465 1675.5,699C 1668.24,697.956 1666.9,694.456 1671.5,688.5 Z"/></g>
<g><path style="opacity:1" fill="#1e1d19" d="M 1671.5,690.5 C 1673.43,690.231 1675.1,690.731 1676.5,692C 1675.67,692.167 1674.83,692.333 1674,692.5C 1672.62,692.316 1671.79,691.649 1671.5,690.5 Z"/></g>
</svg>
