          <svg
            xmlns="http://www.w3.org/2000/svg"
                version="1.1"
                viewBox="-5.0 -10.0 110.0 135.0"
                fill="currentColor"
                id="Capa_1"
                width="25px"
                height="25px"
              >
                <g>
                  <path d="m6.8789 80.059v5.3203 0.33984l0.019532 0.55859c0.011718 0.37109 0.089843 0.75 0.14062 1.1211 0.16016 0.73047 0.37891 1.4609 0.73047 2.1289 0.64844 1.3594 1.6797 2.5117 2.9102 3.3711 1.2383 0.83984 2.7109 1.3711 4.2109 1.4883 0.87891 0.050781 1.1289 0.019531 1.6211 0.03125h1.3281 5.3203 10.641c4.6719-0.019531 11.602 0.96875 11.898-2.7109 0.32031-3.9805-6.9297-2.8594-11.371-2.9102l-10.41-0.089844-5.1992-0.03125h-2.6016c-0.19141-0.011719-0.48828 0-0.60156-0.019531-0.12891 0-0.25 0-0.37109-0.039062-0.25-0.03125-0.48047-0.12109-0.71094-0.19922-0.91016-0.39844-1.6094-1.2812-1.7383-2.2617-0.050781-0.23828-0.039062-0.44922-0.039062-0.96094v-1.3008-2.6016-2.6016c0-0.92969 0.011719-1.5508 0.10938-2.3203 0.17969-1.4688 0.64062-2.8984 1.3086-4.2188 0.67188-1.3203 1.5781-2.5195 2.6602-3.5391 1.2188-1.1406 2.4883-2.25 3.8008-3.3086 2.6094-2.1094 5.3906-4.0195 8.2891-5.6992 1.4492-0.82812 2.9414-1.6016 4.4492-2.3086 0.76172-0.32812 1.5195-0.69141 2.3008-0.98828l1.2812-0.51953c0.66016-0.30078 1.2812-0.73047 1.7812-1.3008 0.5-0.57031 0.89062-1.2695 1.0781-2.0312 0.10156-0.37891 0.14844-0.76953 0.14844-1.1602v-0.35156c0-0.078124 0-0.35156-0.019531-0.51172-0.070312-0.76172-0.30078-1.5-0.71094-2.1719-0.21094-0.33984-0.46094-0.64844-0.76172-0.94141-0.14844-0.14062-0.30859-0.28125-0.48828-0.39844l-0.30859-0.21875c-1.3008-0.87891-2.5-1.8984-3.5586-3.0586-4.2812-4.6016-6.1719-11.27-4.9102-17.398 1.1719-6.1211 5.3984-11.578 11.02-14.129 2.7812-1.3008 5.8516-1.9492 8.8984-1.8594 1.5312 0.058594 3.0117 0.32031 4.4609 0.69141 1.4297 0.46094 2.8516 0.98047 4.1406 1.75 2.6211 1.4609 4.8711 3.5508 6.5117 6.0195 1.6602 2.4414 2.7383 5.2305 3.0391 8.0703 0.039063 0.32813 0.078125 0.67188 0.12109 1.0117 0 0.35156 0.011719 0.69922 0.019531 1.0586 0.039063 0.71094 0.011719 1.4492-0.03125 2.1797-0.078125 1.4688-0.28125 2.8984-0.41016 4.2109-0.25 2.6016-0.35938 4.8984 1.8398 6.1289 1.7695 0.98828 3.9805-0.75 5.3594-4.0195 0.67969-1.6211 1.1406-3.5586 1.2891-5.5312 0.17188-1.9609 0.019531-3.9609-0.23828-5.7109-0.60156-3.9805-2.1094-7.8203-4.3984-11.078-2.2891-3.2695-5.2891-6.0195-8.7383-8.0312-3.4805-1.9609-7.4219-3.1484-11.43-3.3789-3.9805-0.19141-8 0.48047-11.672 2.0312-7.3086 3.1211-13.09 9.6211-15.078 17.309-1 3.8203-1.2109 7.8398-0.46875 11.711 0.73828 3.8711 2.3594 7.5703 4.6992 10.719 1.2305 1.6484 2.6484 3.1602 4.2188 4.4688 0.39844 0.32031 0.78906 0.64844 1.2109 0.94922l0.14062 0.10156-0.73047 0.28906c-1.7383 0.73828-3.4492 1.5391-5.1094 2.4219-3.3203 1.7695-6.4688 3.8086-9.4297 6.0781-1.4805 1.1289-2.9219 2.3203-4.3086 3.5586l-1.0391 0.94141c-0.33984 0.32812-0.78125 0.73828-1.1289 1.1289-0.73828 0.80078-1.4219 1.6719-2.0117 2.5898-1.1797 1.8516-2.0508 3.8984-2.5195 6.0508-0.23828 1.0703-0.37891 2.1719-0.42188 3.2695l-0.019531 0.80859v0.67187 1.3281zm27.641-29.5h-0.03125v0.011718c0.011719 0 0.03125-0.011718 0.03125-0.011718z" />
                  <path d="m92.191 79.16c0.55078-1.2812 0.85938-2.6406 0.91016-4.0391 0.14844-2.8984-1.1289-5.9609-3.1602-7.8984l-4.1211-4.1289-8.2617-8.2305c-0.91016-0.89844-1.5508-2.9414-4.2109-0.39844-2.8711 2.75-0.67969 3.3711 0.14062 4.2617 2.5898 2.7891 5.2617 5.4883 7.9609 8.1719l4.0586 4.0117 0.48828 0.48828c0.10938 0.12109 0.23047 0.23047 0.32812 0.37109 0.21094 0.25 0.37891 0.53125 0.53125 0.82031 0 0.019531 0.019531 0.039062 0.019531 0.058594-0.17969 0.03125-0.35938 0.058593-0.51953 0.050781-10.891-0.57812-21.789 0.89062-32.672-1.8398-1.2695-0.32031-3.1094-0.69922-3.0703 4.3008 0.03125 4.1016 1.7695 3.6406 2.9492 3.6602 5.3281 0.078126 10.648-0.48828 15.98-0.48828 5.3281 0 10.719 0.011719 16.078-0.019531-1.1992 1.1289-2.5391 2.3516-3.8398 3.4805-2.8711 2.5117-5.8516 4.8984-9.0195 7.1016-1.4805 1.0312-3.5703 2.5703 0.011719 6.0703 2.9414 2.8711 4.3203 0.82031 5.4883-0.32031 2.6602-2.6016 5.1992-5.3203 7.7383-8.0391l3.8086-4.0781c0.76172-0.78906 1.6992-1.8711 2.3516-3.3398z" />
                </g>
              </svg>
