<?xml version="1.0" encoding="UTF-8"?>
<svg xmlns="http://www.w3.org/2000/svg" xmlns:xlink="http://www.w3.org/1999/xlink" width="25px" height="25px" viewBox="0 0 25 25" version="1.1"  fill="currentColor">
<g fill="currentColor" id="surface1">
<path  d="M 1.984375 12.402344 L 1.984375 22.816406 L 22.816406 22.816406 L 22.816406 1.984375 L 1.984375 1.984375 Z M 21.824219 3.96875 C 21.824219 4.910156 21.476562 4.960938 12.402344 4.960938 C 3.324219 4.960938 2.976562 4.910156 2.976562 3.96875 C 2.976562 3.027344 3.324219 2.976562 12.402344 2.976562 C 21.476562 2.976562 21.824219 3.027344 21.824219 3.96875 Z M 21.824219 13.890625 L 21.824219 21.824219 L 2.976562 21.824219 L 2.976562 5.953125 L 21.824219 5.953125 Z M 21.824219 13.890625 "/>
<path  d="M 4.464844 8.929688 L 4.464844 10.417969 L 20.335938 10.417969 L 20.335938 7.441406 L 4.464844 7.441406 Z M 19.34375 8.929688 C 19.34375 9.226562 16.714844 9.425781 12.402344 9.425781 C 8.085938 9.425781 5.457031 9.226562 5.457031 8.929688 C 5.457031 8.632812 8.085938 8.433594 12.402344 8.433594 C 16.714844 8.433594 19.34375 8.632812 19.34375 8.929688 Z M 19.34375 8.929688 "/>
<path  d="M 4.664062 12.054688 C 4.515625 12.449219 4.464844 14.386719 4.5625 16.417969 L 4.710938 20.089844 L 11.65625 20.089844 L 11.65625 11.65625 L 8.285156 11.507812 C 5.804688 11.410156 4.859375 11.558594 4.664062 12.054688 Z M 10.914062 15.871094 L 10.914062 19.34375 L 5.457031 19.34375 L 5.457031 12.402344 L 10.914062 12.402344 Z M 10.914062 15.871094 "/>
<path  d="M 13.09375 12.054688 C 12.945312 12.449219 12.898438 14.386719 12.996094 16.417969 L 13.144531 20.089844 L 20.089844 20.089844 L 20.089844 11.65625 L 16.714844 11.507812 C 14.234375 11.410156 13.292969 11.558594 13.09375 12.054688 Z M 19.34375 15.871094 L 19.34375 19.34375 L 13.890625 19.34375 L 13.890625 12.402344 L 19.34375 12.402344 Z M 19.34375 15.871094 "/>
</g>
</svg>
